<svg width="21" height="21" viewBox="0 0 27 27" fill="none" xmlns="http://www.w3.org/2000/svg">
<path d="M25.7045 3.29971C25.3096 2.90072 24.6688 2.90003 24.2739 3.29802L12.1356 15.5075L7.75615 10.7104C7.37773 10.2961 6.73793 10.2693 6.32647 10.6509C5.91533 11.0325 5.88901 11.6781 6.26743 12.0927L11.3602 17.6708C11.5467 17.8752 11.8077 17.9939 12.083 17.9997C12.0904 18 12.0975 18 12.1046 18C12.372 18 12.6293 17.8929 12.8189 17.7024L25.7025 4.74291C26.0985 4.34498 26.0992 3.69871 25.7045 3.29971Z" fill="#DEC66C"/>
<path opacity="0.658017" d="M25.9824 12.4824C25.4203 12.4824 24.9648 12.9379 24.9648 13.5C24.9648 19.822 19.822 24.9648 13.5 24.9648C7.17841 24.9648 2.03518 19.822 2.03518 13.5C2.03518 7.17841 7.17841 2.03518 13.5 2.03518C14.062 2.03518 14.5176 1.57966 14.5176 1.01762C14.5176 0.455519 14.062 0 13.5 0C6.05602 0 0 6.05602 0 13.5C0 20.9437 6.05602 27 13.5 27C20.9437 27 27 20.9437 27 13.5C27 12.938 26.5445 12.4824 25.9824 12.4824Z" fill="white"/>
</svg>
