<svg width="67" height="64" viewBox="0 0 67 64" fill="none" xmlns="http://www.w3.org/2000/svg">
<path d="M14.9286 56V29C7.26786 29 1 35.075 1 42.5C1 49.925 7.26786 56 14.9286 56Z" fill="#DBC374"/>
<path d="M52.0703 29V56C59.731 56 65.9989 49.925 65.9989 42.5C65.9989 35.075 59.731 29 52.0703 29Z" fill="#DBC374"/>
<path fill-rule="evenodd" clip-rule="evenodd" d="M0 33.1429C0 14.8571 15.0172 0 33.5 0C51.9828 0 67 14.8571 67 33.1429V37.7143V51.4286C67 54.5143 66.0759 56.9143 64.2276 58.7429C61.2241 61.6 57.0655 61.7143 56.6034 61.7143H39.0448C38.5828 63.0857 37.3121 64 35.8103 64H31.1897C29.2259 64 27.7241 62.5143 27.7241 60.5714C27.7241 58.6286 29.2259 57.1429 31.1897 57.1429H35.8103C37.3121 57.1429 38.5828 58.0571 39.0448 59.4286H56.6034C56.6034 59.4286 60.3 59.4286 62.6103 57.1429C63.9966 55.7714 64.6897 53.8286 64.6897 51.4286V45.4857C62.2638 49.3714 57.9897 52.1143 53.1379 52.4571V53.7143C53.1379 55.6571 51.6362 57.1429 49.6724 57.1429C47.7086 57.1429 46.2069 55.6571 46.2069 53.7143V21.7143C46.2069 19.7714 47.7086 18.2857 49.6724 18.2857C51.6362 18.2857 53.1379 19.7714 53.1379 21.7143V22.9714C57.8741 23.3143 61.9172 25.8286 64.4586 29.4857C62.6103 14.1714 49.4414 2.28571 33.5 2.28571C17.5586 2.28571 4.38966 14.1714 2.54138 29.4857C5.08276 25.8286 9.12586 23.3143 13.8621 22.9714V21.7143C13.8621 19.7714 15.3638 18.2857 17.3276 18.2857C19.2914 18.2857 20.7931 19.7714 20.7931 21.7143V53.7143C20.7931 55.6571 19.2914 57.1429 17.3276 57.1429C15.3638 57.1429 13.8621 55.6571 13.8621 53.7143V52.4571C6.12241 51.8857 0 45.4857 0 37.7143V33.1429ZM17.3276 20.5714C16.6345 20.5714 16.1724 21.0286 16.1724 21.7143V24V51.4286V53.7143C16.1724 54.4 16.6345 54.8571 17.3276 54.8571C18.0207 54.8571 18.4828 54.4 18.4828 53.7143V21.7143C18.4828 21.0286 18.0207 20.5714 17.3276 20.5714ZM13.8621 50.2857C9.47241 49.9429 5.66035 47.2 3.69655 43.4286H5.77586C6.46897 43.4286 6.93104 42.9714 6.93104 42.2857C6.93104 41.6 6.46897 41.1429 5.77586 41.1429H2.77241C2.54138 40.4571 2.42586 39.6571 2.31034 38.8571H10.3966C11.0897 38.8571 11.5517 38.4 11.5517 37.7143C11.5517 37.0286 11.0897 36.5714 10.3966 36.5714H2.31034C2.42586 35.7714 2.54138 34.9714 2.77241 34.2857H5.77586C6.46897 34.2857 6.93104 33.8286 6.93104 33.1429C6.93104 32.4571 6.46897 32 5.77586 32H3.69655C5.66035 28.2286 9.47241 25.6 13.8621 25.1429V50.2857ZM30.0345 60.5714C30.0345 61.2571 30.4966 61.7143 31.1897 61.7143H35.8103C36.5034 61.7143 36.9655 61.2571 36.9655 60.5714C36.9655 59.8857 36.5034 59.4286 35.8103 59.4286H31.1897C30.4966 59.4286 30.0345 59.8857 30.0345 60.5714ZM50.8276 53.7143C50.8276 54.4 50.3655 54.8571 49.6724 54.8571C48.9793 54.8571 48.5172 54.4 48.5172 53.7143V21.7143C48.5172 21.0286 48.9793 20.5714 49.6724 20.5714C50.3655 20.5714 50.8276 21.0286 50.8276 21.7143V24V51.4286V53.7143ZM63.3034 32C61.3397 28.2286 57.5276 25.4857 53.1379 25.1429V50.2857C57.5276 49.8286 61.3397 47.2 63.3034 43.4286H61.2241C60.531 43.4286 60.069 42.9714 60.069 42.2857C60.069 41.6 60.531 41.1429 61.2241 41.1429H64.2276C64.4586 40.4571 64.5741 39.6571 64.6897 38.8571H56.6035C55.9103 38.8571 55.4483 38.4 55.4483 37.7143C55.4483 37.0286 55.9103 36.5714 56.6035 36.5714H64.6897C64.5741 35.7714 64.4586 34.9714 64.2276 34.2857H61.2241C60.531 34.2857 60.069 33.8286 60.069 33.1429C60.069 32.4571 60.531 32 61.2241 32H63.3034Z" fill="#322153"/>
</svg>
