<svg width="67" height="48" viewBox="0 0 67 48" fill="none" xmlns="http://www.w3.org/2000/svg">
<path fill-rule="evenodd" clip-rule="evenodd" d="M58.7083 6C59.9688 6 61 7.0125 61 8.25V42H6V8.25C6 7.0125 7.03125 6 8.29167 6H58.7083ZM10.5833 37.5H56.4167V10.5H10.5833V37.5Z" fill="#DBC374"/>
<path d="M57.7594 33.1427V5.71415C57.7594 5.02843 57.2974 4.57129 56.6043 4.57129H38.1215C37.4284 4.57129 36.9663 5.02843 36.9663 5.71415C36.9663 6.39986 37.4284 6.857 38.1215 6.857H55.4491V31.9999H11.5525V6.857H28.8801C29.5732 6.857 30.0353 6.39986 30.0353 5.71415C30.0353 5.02843 29.5732 4.57129 28.8801 4.57129H10.3974C9.70426 4.57129 9.24219 5.02843 9.24219 5.71415V33.1427C9.24219 33.8284 9.70426 34.2856 10.3974 34.2856H56.6043C57.2974 34.2856 57.7594 33.8284 57.7594 33.1427Z" fill="#322153"/>
<path d="M38.9278 14.0567C38.4658 13.5996 37.7727 13.5996 37.3106 14.0567L28.0692 23.1996C27.6071 23.6567 27.6071 24.3424 28.0692 24.7996C28.3002 25.0282 28.6468 25.1424 28.8778 25.1424C29.1089 25.1424 29.4554 25.0282 29.6864 24.7996L38.9278 15.6567C39.3899 15.1996 39.3899 14.5139 38.9278 14.0567Z" fill="#322153"/>
<path d="M37.311 18.629L32.6903 23.2004C32.2282 23.6576 32.2282 24.3433 32.6903 24.8004C32.9213 25.029 33.2679 25.1433 33.4989 25.1433C33.73 25.1433 34.0765 25.029 34.3075 24.8004L38.9282 20.229C39.3903 19.7718 39.3903 19.0861 38.9282 18.629C38.4662 18.1718 37.7731 18.1718 37.311 18.629Z" fill="#322153"/>
<path d="M28.8778 20.571C29.2244 20.571 29.4554 20.4567 29.6864 20.2282L34.3071 15.6567C34.7692 15.1996 34.7692 14.5139 34.3071 14.0567C33.8451 13.5996 33.152 13.5996 32.6899 14.0567L28.0692 18.6282C27.6071 19.0853 27.6071 19.771 28.0692 20.2282C28.3002 20.4567 28.5313 20.571 28.8778 20.571Z" fill="#322153"/>
<path d="M33.4989 6.857C34.1369 6.857 34.6541 6.34533 34.6541 5.71415C34.6541 5.08296 34.1369 4.57129 33.4989 4.57129C32.8609 4.57129 32.3438 5.08296 32.3438 5.71415C32.3438 6.34533 32.8609 6.857 33.4989 6.857Z" fill="#322153"/>
<path fill-rule="evenodd" clip-rule="evenodd" d="M63.5345 36.5714H62.3793V3.42857C62.3793 1.48571 60.8776 0 58.9138 0H8.08621C6.12241 0 4.62069 1.48571 4.62069 3.42857V36.5714H3.46552C1.50172 36.5714 0 38.0571 0 40V44.5714C0 46.5143 1.50172 48 3.46552 48H63.5345C65.4983 48 67 46.5143 67 44.5714V40C67 38.0571 65.4983 36.5714 63.5345 36.5714ZM6.93103 3.42857C6.93103 2.74286 7.3931 2.28571 8.08621 2.28571H58.9138C59.6069 2.28571 60.069 2.74286 60.069 3.42857V36.5714H42.7414C42.0483 36.5714 41.5862 37.0286 41.5862 37.7143C41.5862 38.4 42.0483 38.8571 42.7414 38.8571H46.2069V41.1429H20.7931V38.8571H38.1207C38.8138 38.8571 39.2759 38.4 39.2759 37.7143C39.2759 37.0286 38.8138 36.5714 38.1207 36.5714H6.93103V3.42857ZM3.46552 45.7143H63.5345C64.2276 45.7143 64.6897 45.2571 64.6897 44.5714V43.4286H61.2241C60.531 43.4286 60.069 42.9714 60.069 42.2857C60.069 41.6 60.531 41.1429 61.2241 41.1429H64.6897V40C64.6897 39.3143 64.2276 38.8571 63.5345 38.8571H48.5172V42.2857C48.5172 42.9714 48.0552 43.4286 47.3621 43.4286H19.6379C18.9448 43.4286 18.4828 42.9714 18.4828 42.2857V38.8571H3.46552C2.77241 38.8571 2.31034 39.3143 2.31034 40V41.1429H5.77586C6.46897 41.1429 6.93104 41.6 6.93104 42.2857C6.93104 42.9714 6.46897 43.4286 5.77586 43.4286H2.31034V44.5714C2.31034 45.2571 2.77241 45.7143 3.46552 45.7143Z" fill="#322153"/>
</svg>
