<svg width="59" height="68" viewBox="0 0 59 68" fill="none" xmlns="http://www.w3.org/2000/svg">
<path d="M15.75 6C13.1375 6 11 8.12264 11 10.717V39.0189L26.675 54.5849C28.575 56.4717 31.5438 56.4717 33.4438 54.5849L49 39.0189V15.434L39.5 6H15.75Z" fill="#DBC374"/>
<path d="M16.1648 47.2482C15.6927 46.7792 14.9847 46.7792 14.5127 47.2482L5.07275 56.6275C4.60075 57.0965 4.60075 57.7999 5.07275 58.2689C5.30875 58.5034 5.66275 58.6206 5.89875 58.6206C6.13475 58.6206 6.48875 58.5034 6.72475 58.2689L16.1648 48.8896C16.6368 48.4206 16.6368 47.7172 16.1648 47.2482Z" fill="#322153"/>
<path d="M14.1602 62.1382C14.1602 62.8417 14.6322 63.3106 15.3402 63.3106H53.1002C53.8082 63.3106 54.2802 62.8417 54.2802 62.1382C54.2802 61.4348 53.8082 60.9658 53.1002 60.9658H15.3402C14.6322 60.9658 14.1602 61.4348 14.1602 62.1382Z" fill="#322153"/>
<path fill-rule="evenodd" clip-rule="evenodd" d="M49.324 9.9069C49.3535 9.96552 49.383 10.0241 49.442 10.0828C49.56 10.2 49.56 10.4345 49.56 10.5517V16.2966L56.876 22.3931C58.174 23.4483 59 25.0897 59 26.8483V62.1379C59 65.4207 56.404 68 53.1 68H5.9C2.596 68 0 65.4207 0 62.1379V60.9655V48.069V26.8483C0 25.0897 0.826 23.4483 2.124 22.2759L9.44 16.2966V5.86207C9.44 2.57931 12.036 0 15.34 0H38.94C39.058 0 39.294 0 39.412 0.117241C39.53 0.117241 39.648 0.234483 39.766 0.351724L49.206 9.73103C49.265 9.78966 49.2945 9.84828 49.324 9.9069ZM45.548 9.37931L40.12 3.98621V5.86207C40.12 7.85517 41.654 9.37931 43.66 9.37931H45.548ZM11.8 5.86207C11.8 3.86897 13.334 2.34483 15.34 2.34483H37.76V5.86207C37.76 9.14483 40.356 11.7241 43.66 11.7241H47.2V33.531L31.978 48.6552C30.562 50.0621 28.32 50.0621 27.022 48.6552L11.8 33.531V5.86207ZM56.64 26.8483C56.64 25.7931 56.168 24.8552 55.342 24.1517L49.56 19.3448V31.1862L52.274 28.4897C52.746 28.0207 53.454 28.0207 53.926 28.4897C54.398 28.9586 54.398 29.6621 53.926 30.131L49.206 34.8207L33.63 50.2966C32.568 51.469 30.916 52.0552 29.5 52.0552C28.084 52.0552 26.55 51.469 25.37 50.2966L9.794 34.8207L5.074 30.131C4.602 29.6621 4.602 28.9586 5.074 28.4897C5.546 28.0207 6.254 28.0207 6.726 28.4897L9.44 31.1862V19.3448L3.658 24.1517C2.832 24.8552 2.36 25.7931 2.36 26.8483V48.069V60.9655H10.62C11.328 60.9655 11.8 61.4345 11.8 62.1379C11.8 62.8414 11.328 63.3103 10.62 63.3103H2.596C3.068 64.7172 4.366 65.6552 5.9 65.6552H53.1C54.988 65.6552 56.404 64.3655 56.64 62.6069L42.834 48.8897C42.362 48.4207 42.362 47.7172 42.834 47.2483C43.306 46.7793 44.014 46.7793 44.486 47.2483L56.64 59.3241V26.8483Z" fill="#322153"/>
<path d="M20.0589 11.7237H29.4989C30.2069 11.7237 30.6789 11.2548 30.6789 10.5513C30.6789 9.84787 30.2069 9.37891 29.4989 9.37891H20.0589C19.3509 9.37891 18.8789 9.84787 18.8789 10.5513C18.8789 11.2548 19.3509 11.7237 20.0589 11.7237Z" fill="#322153"/>
<path d="M20.0589 16.4142H38.9389C39.6469 16.4142 40.1189 15.9452 40.1189 15.2417C40.1189 14.5383 39.6469 14.0693 38.9389 14.0693H20.0589C19.3509 14.0693 18.8789 14.5383 18.8789 15.2417C18.8789 15.9452 19.3509 16.4142 20.0589 16.4142Z" fill="#322153"/>
<path d="M20.0589 21.1036H29.4989C30.2069 21.1036 30.6789 20.6347 30.6789 19.9312C30.6789 19.2278 30.2069 18.7588 29.4989 18.7588H20.0589C19.3509 18.7588 18.8789 19.2278 18.8789 19.9312C18.8789 20.6347 19.3509 21.1036 20.0589 21.1036Z" fill="#322153"/>
<path d="M38.9391 18.7588H34.2191C33.5111 18.7588 33.0391 19.2278 33.0391 19.9312C33.0391 20.6347 33.5111 21.1036 34.2191 21.1036H38.9391C39.6471 21.1036 40.1191 20.6347 40.1191 19.9312C40.1191 19.2278 39.6471 18.7588 38.9391 18.7588Z" fill="#322153"/>
<path d="M20.0589 25.7931H38.9389C39.6469 25.7931 40.1189 25.3241 40.1189 24.6207C40.1189 23.9172 39.6469 23.4482 38.9389 23.4482H20.0589C19.3509 23.4482 18.8789 23.9172 18.8789 24.6207C18.8789 25.3241 19.3509 25.7931 20.0589 25.7931Z" fill="#322153"/>
<path d="M38.9403 28.1377H29.5003C28.7923 28.1377 28.3203 28.6067 28.3203 29.3101C28.3203 30.0136 28.7923 30.4825 29.5003 30.4825H38.9403C39.6483 30.4825 40.1203 30.0136 40.1203 29.3101C40.1203 28.6067 39.6483 28.1377 38.9403 28.1377Z" fill="#322153"/>
<path d="M20.0589 30.4825H24.7789C25.4869 30.4825 25.9589 30.0136 25.9589 29.3101C25.9589 28.6067 25.4869 28.1377 24.7789 28.1377H20.0589C19.3509 28.1377 18.8789 28.6067 18.8789 29.3101C18.8789 30.0136 19.3509 30.4825 20.0589 30.4825Z" fill="#322153"/>
<path d="M40.1189 33.9996C40.1189 33.2961 39.6469 32.8271 38.9389 32.8271H20.0589C19.3509 32.8271 18.8789 33.2961 18.8789 33.9996C18.8789 34.703 19.3509 35.172 20.0589 35.172H38.9389C39.6469 35.172 40.1189 34.703 40.1189 33.9996Z" fill="#322153"/>
</svg>
