<svg width="69" height="72" viewBox="0 0 69 72" fill="none" xmlns="http://www.w3.org/2000/svg">
<path d="M39.2857 53.1429L1 6L20.1429 72L39.2857 53.1429Z" fill="#DBC374"/>
<path d="M48.8571 48.4286L68 39L1 6L48.8571 48.4286Z" fill="#DBC374"/>
<path fill-rule="evenodd" clip-rule="evenodd" d="M68.2862 32.9448L1.66552 0.117241H1.54655L1.42759 0H1.18966H0.951724C0.901005 0 0.871909 0 0.845999 0.00908529C0.811135 0.0213101 0.782039 0.0499843 0.713793 0.117241H0.594828H0.475862L0.356897 0.234483L0.237931 0.351724V0.468966C0.237931 0.527586 0.20819 0.556897 0.178448 0.586207C0.148707 0.615517 0.118966 0.644828 0.118966 0.703448V0.937931C0 1.05517 0 1.17241 0 1.17241V1.4069V1.52414L19.0345 67.1793C19.1534 67.531 19.5103 67.8828 19.8672 68H20.2241C20.581 68 20.819 67.8828 21.0569 67.6483L34.2621 54.6345L42.9466 67.531C42.992 67.5758 43.0201 67.6206 43.0441 67.6589C43.0829 67.7207 43.111 67.7655 43.1845 67.7655H43.3034C43.3629 67.7655 43.3927 67.7948 43.4224 67.8241C43.4522 67.8535 43.4819 67.8828 43.5414 67.8828H43.6603H44.0172H44.1362H44.3741C44.3741 67.8828 44.4931 67.8828 44.4931 67.7655C44.4931 67.7655 44.6121 67.7655 44.6121 67.6483L44.85 67.4138C44.85 67.4138 44.85 67.2966 44.969 67.2966C45.0879 67.1793 45.0879 67.0621 45.0879 66.9448L49.7276 44.0828L68.2862 34.9379C68.6431 34.7034 69 34.3517 69 33.8828C69 33.4138 68.7621 33.1793 68.2862 32.9448ZM40.4483 47.8345C40.4483 47.7759 40.4185 47.7172 40.3888 47.6586C40.3591 47.6 40.3293 47.5414 40.3293 47.4828V47.3655L11.1828 11.6069L47.4672 43.731L43.8983 61.4345L40.4483 47.8345ZM3.92586 6.44828L20.819 64.6L37.5931 47.9517L3.92586 6.44828ZM38.6638 50.4138L41.281 60.6138L36.1655 52.9931L38.6638 50.4138ZM8.56552 6.09655L49.0138 41.9724L65.1931 34L8.56552 6.09655Z" fill="#322153"/>
<path d="M2.3776 29.0757C2.25864 28.4895 1.54484 28.0205 0.950017 28.255C0.35519 28.3723 -0.120672 29.0757 0.117259 29.6619L4.87588 48.4205C4.87588 48.8895 5.47071 49.2412 5.94657 49.2412C6.06553 49.2412 6.1845 49.2412 6.1845 49.2412C6.77933 49.124 7.25519 48.4205 7.01726 47.8343L2.3776 29.0757Z" fill="#322153"/>
<path d="M20.6985 0.117379C20.1037 -0.117103 19.3899 0.117379 19.1519 0.586345C18.914 1.17255 19.1519 1.876 19.6278 2.11048L29.145 6.80014C29.383 7.03462 29.5019 7.03462 29.7399 7.03462C30.2157 7.03462 30.5726 6.80014 30.8106 6.33117C31.0485 5.74497 30.8106 5.04152 30.3347 4.80703L20.6985 0.117379Z" fill="#322153"/>
<path d="M57.4593 53.5792C57.6972 53.8137 58.0541 53.931 58.292 53.931C58.53 53.931 58.8869 53.8137 59.1248 53.5792C59.6006 53.1103 59.6006 52.4068 59.1248 51.9379L54.3662 47.2482C53.8903 46.7792 53.1765 46.7792 52.7006 47.2482C52.2248 47.7172 52.2248 48.4206 52.7006 48.8896L57.4593 53.5792Z" fill="#322153"/>
<path d="M52.7006 58.2685L57.4593 62.9581C57.6972 63.1926 58.0541 63.3099 58.292 63.3099C58.53 63.3099 58.8869 63.1926 59.1248 62.9581C59.6006 62.4892 59.6006 61.7857 59.1248 61.3168L54.3662 56.6271C53.8903 56.1581 53.1765 56.1581 52.7006 56.6271C52.2248 57.0961 52.2248 57.7995 52.7006 58.2685Z" fill="#322153"/>
<path d="M59.124 42.5588C58.6481 42.0898 57.9343 42.0898 57.4585 42.5588C56.9826 43.0277 56.9826 43.7312 57.4585 44.2001L66.9757 53.5794C67.2136 53.8139 67.5705 53.9312 67.8085 53.9312C68.0464 53.9312 68.4033 53.8139 68.6412 53.5794C69.1171 53.1105 69.1171 52.407 68.6412 51.9381L59.124 42.5588Z" fill="#322153"/>
</svg>
