<svg width="49" height="72" viewBox="0 0 49 72" fill="none" xmlns="http://www.w3.org/2000/svg">
<path fill-rule="evenodd" clip-rule="evenodd" d="M1 36.1714V14.6036C1 12.3643 2.5275 10.3607 4.76 10.0071L24.5 6L44.24 10.0071C46.4725 10.4786 48 12.3643 48 14.6036V36.1714C48 46.8964 43.1825 57.0321 34.7225 63.75L24.5 72L14.2775 63.75C5.8175 57.0321 1 46.8964 1 36.1714ZM7.4625 15.075C6.405 15.3107 5.7 16.2536 5.7 17.3143V34.2857C5.7 44.6571 10.635 54.4393 18.86 60.6857L24.5 64.9286L30.14 60.6857C38.365 54.4393 43.3 44.6571 43.3 34.2857V17.1964C43.3 16.1357 42.595 15.1929 41.5375 14.9571L24.5 10.7143L7.4625 15.075Z" fill="#DBC374"/>
<path fill-rule="evenodd" clip-rule="evenodd" d="M24.5 0H24.7333L44.3333 4.03613C47.0167 4.62968 49 7.00387 49 9.8529V31.5768C49 42.8542 44.1 53.3006 35.2333 60.3045L25.0833 68.6142C25.0833 68.7329 24.9667 68.7329 24.9667 68.7329C24.9667 68.8516 24.85 68.8516 24.85 68.8516C24.6167 68.9703 24.5 68.9703 24.3833 68.9703C24.2466 68.9703 24.15 68.9296 24.0699 68.8958C24.0133 68.872 23.965 68.8516 23.9167 68.8516C23.9167 68.7329 23.8 68.7329 23.8 68.7329L23.6833 68.6142L13.5333 60.3045C4.9 53.3006 0 42.8542 0 31.5768V9.8529C0 7.00387 1.98333 4.62968 4.66667 4.03613L24.2667 0H24.3833H24.5ZM46.6667 31.5768V9.8529C46.6667 8.19097 45.5 6.64774 43.8667 6.29161L25.6667 2.61161V4.98581L41.65 9.14065C43.2833 9.49677 44.3333 10.9213 44.3333 12.5832V15.4323C44.3333 16.1445 43.8667 16.6194 43.1667 16.6194C42.4667 16.6194 42 16.1445 42 15.4323V12.5832C42 11.9897 41.5333 11.5148 41.0667 11.3961L24.5 7.12258L7.93333 11.3961C7.35 11.5148 7 11.9897 7 12.5832V29.6774C7 39.7677 11.6667 49.2645 19.6 55.3187C20.0667 55.6748 20.1833 56.5058 19.8333 56.9806C19.6 57.3368 19.25 57.4555 18.9 57.4555C18.6667 57.4555 18.4333 57.3368 18.2 57.2181C9.68333 50.8077 4.66667 40.48 4.66667 29.6774V12.5832C4.66667 10.9213 5.71667 9.49677 7.35 9.02194L23.3333 4.98581V2.61161L5.13333 6.41032C3.5 6.64774 2.33333 8.19097 2.33333 9.8529V31.5768C2.33333 42.0232 7 51.8761 15.05 58.4052L23.3333 65.1716V60.5419C23.3333 60.1858 23.45 59.8297 23.8 59.5923L29.4 55.3187C37.3333 49.2645 42 39.7677 42 29.6774V20.1806C42 19.4684 42.4667 18.9935 43.1667 18.9935C43.8667 18.9935 44.3333 19.4684 44.3333 20.1806V29.6774C44.3333 40.48 39.3167 50.8077 30.8 57.2181L25.6667 61.1355V65.1716L33.95 58.4052C42 51.8761 46.6667 42.1419 46.6667 31.5768Z" fill="#322153"/>
<path d="M28.3513 24.0983L19.018 33.5951C18.5513 34.0699 18.5513 34.7822 19.018 35.257C19.2513 35.4944 19.6013 35.6132 19.8346 35.6132C20.068 35.6132 20.418 35.4944 20.6513 35.257L29.9846 25.7603C30.4513 25.2854 30.4513 24.5732 29.9846 24.0983C29.518 23.6235 28.818 23.6235 28.3513 24.0983Z" fill="#322153"/>
<path d="M19.8346 30.8648C20.1846 30.8648 20.418 30.7461 20.6513 30.5086L25.318 25.7603C25.7846 25.2854 25.7846 24.5732 25.318 24.0983C24.8513 23.6235 24.1513 23.6235 23.6846 24.0983L19.018 28.8467C18.5513 29.3215 18.5513 30.0338 19.018 30.5086C19.2513 30.7461 19.4846 30.8648 19.8346 30.8648Z" fill="#322153"/>
<path d="M28.3487 28.8464L23.682 33.5948C23.2154 34.0696 23.2154 34.7818 23.682 35.2567C23.9154 35.4941 24.2654 35.6128 24.4987 35.6128C24.732 35.6128 25.082 35.4941 25.3154 35.2567L29.982 30.5083C30.4487 30.0335 30.4487 29.3212 29.982 28.8464C29.5154 28.3715 28.8154 28.3715 28.3487 28.8464Z" fill="#322153"/>
</svg>
