<svg width="59" height="68" viewBox="0 0 59 68" fill="none" xmlns="http://www.w3.org/2000/svg">
<path d="M34.6008 15.3846V10.6923H36.9008C38.1658 10.6923 39.2008 9.63654 39.2008 8.34615C39.2008 7.05577 38.1658 6 36.9008 6H23.1008C21.8358 6 20.8008 7.05577 20.8008 8.34615C20.8008 9.63654 21.8358 10.6923 23.1008 10.6923H25.4008V15.3846H34.6008Z" fill="#DBC374"/>
<path fill-rule="evenodd" clip-rule="evenodd" d="M30 67.0002C17.35 67.0002 7 56.4425 7 43.5387C7 30.6348 17.35 20.0771 30 20.0771C42.65 20.0771 53 30.6348 53 43.5387C53 56.4425 42.65 67.0002 30 67.0002ZM48.4 43.5387C48.4 33.2156 40.12 24.7695 30 24.7695C19.88 24.7695 11.6 33.2156 11.6 43.5387C11.6 53.8618 19.88 62.3079 30 62.3079C40.12 62.3079 48.4 53.8618 48.4 43.5387Z" fill="#DBC374"/>
<path fill-rule="evenodd" clip-rule="evenodd" d="M0 38.6897C0 54.869 13.216 68 29.5 68C45.784 68 59 54.869 59 38.6897C59 29.8966 54.988 21.9241 48.734 16.531L50.74 14.5379L52.274 16.0621C52.51 16.2966 52.864 16.4138 53.1 16.4138C53.336 16.4138 53.69 16.2966 53.926 16.0621C54.398 15.5931 54.398 14.8897 53.926 14.4207L49.206 9.73103C48.734 9.26207 48.026 9.26207 47.554 9.73103C47.082 10.2 47.082 10.9034 47.554 11.3724L49.088 12.8966L46.964 15.0069C43.542 12.5448 39.648 10.7862 35.4 9.96552V7.03448H36.58C38.586 7.03448 40.12 5.51034 40.12 3.51724C40.12 1.52414 38.586 0 36.58 0H22.42C20.414 0 18.88 1.52414 18.88 3.51724C18.88 5.51034 20.414 7.03448 22.42 7.03448H23.6V9.96552C19.352 10.7862 15.458 12.5448 12.036 15.0069L9.912 12.8966L11.446 11.3724C11.918 10.9034 11.918 10.2 11.446 9.73103C10.974 9.26207 10.266 9.26207 9.794 9.73103L5.31 14.1862C4.838 14.6552 4.838 15.3586 5.31 15.8276C5.546 16.0621 5.9 16.1793 6.136 16.1793C6.372 16.1793 6.726 16.0621 6.962 15.8276L8.26 14.5379L10.266 16.531C4.012 21.9241 0 29.8966 0 38.6897ZM56.64 38.6897C56.64 53.5793 44.486 65.6552 29.5 65.6552C14.514 65.6552 2.36 53.5793 2.36 38.6897C2.36 23.8 14.514 11.7241 29.5 11.7241C44.486 11.7241 56.64 23.8 56.64 38.6897ZM29.5 7.03448H25.96V9.61379C27.14 9.49655 28.32 9.37931 29.5 9.37931C30.68 9.37931 31.86 9.49655 33.04 9.61379V5.86207C33.04 5.15862 33.512 4.68966 34.22 4.68966H36.58C37.288 4.68966 37.76 4.22069 37.76 3.51724C37.76 2.81379 37.288 2.34483 36.58 2.34483H22.42C21.712 2.34483 21.24 2.81379 21.24 3.51724C21.24 4.22069 21.712 4.68966 22.42 4.68966H29.5C30.208 4.68966 30.68 5.15862 30.68 5.86207C30.68 6.56552 30.208 7.03448 29.5 7.03448Z" fill="#322153"/>
<path d="M29.4988 60.9659C17.1088 60.9659 7.07875 51.0004 7.07875 38.69C7.07875 26.3797 17.1088 16.4142 29.4988 16.4142C30.2068 16.4142 30.6787 15.9452 30.6787 15.2417C30.6787 14.5383 30.2068 14.0693 29.4988 14.0693C15.8108 14.0693 4.71875 25.09 4.71875 38.69C4.71875 52.29 15.8108 63.3107 29.4988 63.3107C43.1868 63.3107 54.2788 52.29 54.2788 38.69C54.2788 37.9866 53.8068 37.5176 53.0988 37.5176C52.3908 37.5176 51.9188 37.9866 51.9188 38.69C51.9188 51.0004 41.8888 60.9659 29.4988 60.9659Z" fill="#322153"/>
<path d="M29.5003 18.7588C28.7923 18.7588 28.3203 19.2278 28.3203 19.9312V24.6209C28.3203 25.3243 28.7923 25.7933 29.5003 25.7933C30.2083 25.7933 30.6803 25.3243 30.6803 24.6209V21.1036C39.8843 21.6898 47.2003 29.3105 47.2003 38.6898C47.2003 48.0691 39.8843 55.6898 30.6803 56.276V52.7588C30.6803 52.0553 30.2083 51.5864 29.5003 51.5864C28.7923 51.5864 28.3203 52.0553 28.3203 52.7588V57.4484C28.3203 58.1519 28.7923 58.6209 29.5003 58.6209C40.5923 58.6209 49.5603 49.7105 49.5603 38.6898C49.5603 27.6691 40.5923 18.7588 29.5003 18.7588Z" fill="#322153"/>
<path d="M16.5198 26.9659C17.1715 26.9659 17.6998 26.441 17.6998 25.7935C17.6998 25.146 17.1715 24.6211 16.5198 24.6211C15.8681 24.6211 15.3398 25.146 15.3398 25.7935C15.3398 26.441 15.8681 26.9659 16.5198 26.9659Z" fill="#322153"/>
<path d="M11.8011 39.8624C12.4528 39.8624 12.9811 39.3375 12.9811 38.69C12.9811 38.0425 12.4528 37.5176 11.8011 37.5176C11.1494 37.5176 10.6211 38.0425 10.6211 38.69C10.6211 39.3375 11.1494 39.8624 11.8011 39.8624Z" fill="#322153"/>
<path d="M16.5198 52.7589C17.1715 52.7589 17.6998 52.234 17.6998 51.5865C17.6998 50.939 17.1715 50.4141 16.5198 50.4141C15.8681 50.4141 15.3398 50.939 15.3398 51.5865C15.3398 52.234 15.8681 52.7589 16.5198 52.7589Z" fill="#322153"/>
<path fill-rule="evenodd" clip-rule="evenodd" d="M38.1156 28.4894C38.5876 28.0205 39.2956 28.0205 39.7676 28.4894C40.2396 28.9584 40.2396 29.6618 39.7676 30.1308L34.4576 35.4067C35.0476 36.3446 35.4016 37.517 35.4016 38.6894C35.4016 41.9722 32.8056 44.5515 29.5016 44.5515C26.1976 44.5515 23.6016 41.9722 23.6016 38.6894C23.6016 35.4067 26.1976 32.8274 29.5016 32.8274C30.6816 32.8274 31.8616 33.1791 32.8056 33.7653L38.1156 28.4894ZM29.5016 42.2067C31.5076 42.2067 33.0416 40.6825 33.0416 38.6894C33.0416 38.1032 32.9236 37.6342 32.6876 37.1653L30.3276 39.5101C30.0916 39.7446 29.7376 39.8618 29.5016 39.8618C29.2656 39.8618 28.9116 39.7446 28.6756 39.5101C28.2036 39.0411 28.2036 38.3377 28.6756 37.8687L31.0356 35.5239C30.5636 35.2894 30.0916 35.1722 29.5016 35.1722C27.4956 35.1722 25.9616 36.6963 25.9616 38.6894C25.9616 40.6825 27.4956 42.2067 29.5016 42.2067Z" fill="#322153"/>
</svg>
