<svg width="205" height="205" version="1.1" viewBox="0 0 205 205" xmlns="http://www.w3.org/2000/svg">
	<path d="m106.8 0.0855c-47.53-1.954-91.84 29.76-103.8 77.61-13.63 54.69 19.97 110.6 74.66 124.3 54.69 13.63 110.6-19.97 124.3-74.66 13.63-54.69-19.97-110.6-74.66-124.3-6.836-1.704-13.69-2.67-20.48-2.949zm-1.875 41.92c4.031 0.181 8.113 0.7672 12.2 1.785 32.66 8.144 52.21 40.68 44.06 73.34-8.144 32.66-40.67 52.21-73.34 44.07-32.66-8.143-52.21-40.68-44.07-73.34 7.126-28.58 32.93-47.12 61.14-45.85z" fill="#9bad58"/>
</svg>
